<?xml version="1.0" encoding="utf-8"?>
<!-- Generator: Adobe Illustrator 24.0.2, SVG Export Plug-In . SVG Version: 6.00 Build 0)  -->
<svg version="1.1" id="Layer_1" xmlns="http://www.w3.org/2000/svg" xmlns:xlink="http://www.w3.org/1999/xlink" x="0px" y="0px"
	 viewBox="0 0 362 70" style="enable-background:new 0 0 362 70;" xml:space="preserve">
<style type="text/css">
	.st0{fill:#EA1A47;}
	.st1{fill:#97999A;}
</style>
<g>
	<g>
		<path class="st0" d="M1.5,56.2V25.8h9.8v30.5H1.5z"/>
		<circle class="st0" cx="6.4" cy="18.8" r="5.4"/>
	</g>
	<g>
		<path class="st0" d="M47.4,40.2c0,9.3-6.5,16-15.1,16c-3.9,0-6.6-1.5-8.6-3.5v3.6h-9.4V13.4H24v14c1.9-1.8,4.6-3.1,8.2-3.1
			C40.9,24.2,47.4,31,47.4,40.2z M37.5,40.1c0-3.9-2.9-7-6.9-7c-4,0-6.9,3.2-6.9,7c0,4,2.9,7.1,6.9,7.1
			C34.6,47.2,37.5,44.1,37.5,40.1z"/>
	</g>
	<g>
		<path class="st0" d="M81,43.4H59.1c1,2.9,3.4,4.8,7.5,4.8c3.2,0,6.9-1.2,9.3-2.8l3.8,6.6c-3.1,2.2-7.8,4.2-13.5,4.2
			c-11.4,0-16.9-7.6-16.9-15.9c0-9.1,6.5-16.1,16.4-16.1c8.8,0,15.7,5.6,15.7,15.3C81.3,40.7,81.2,42.1,81,43.4z M59,36.7h13
			c-0.8-2.9-3.1-4.7-6.4-4.7C62.5,32,60,33.7,59,36.7z"/>
	</g>
	<g>
		<path class="st0" d="M100.6,56.2l-4.9-9.4l-5.3,9.4H78.8l10.1-16.1l-8.8-15.9h11.6l4.1,8.7l4.9-8.7H112l-9.4,15.9l9.8,16.1H100.6z
			"/>
	</g>
	<circle class="st0" cx="118.2" cy="51" r="5.3"/>
	<g>
		<path class="st1" d="M133.7,40.9c0-9.4,6.6-15.9,15.8-15.9c6,0,11.2,3,13.6,7.8l-2.8,1.6c-2-3.8-6.1-6.3-10.8-6.3
			c-7.1,0-12.4,5.3-12.4,12.8c0,7.4,5.1,12.7,12.1,12.7c4.7,0,9-2.7,10.9-6.3l2.8,1.7c-2.4,4.7-7.8,7.7-13.7,7.7
			C140.1,56.7,133.7,50.1,133.7,40.9z"/>
		<path class="st1" d="M167.2,13.2h3.3v17.6c1.8-3.9,5.7-5.9,10.5-5.9c6.5,0,12,4.3,12,12.8V56h-3.4V38.3c0-6.4-3.5-10.2-9-10.2
			c-4.7,0-10,3-10,10.9V56h-3.4V13.2z"/>
		<path class="st1" d="M228.1,25.7V56h-3.3v-5.9c-2.6,4.1-6.8,6.6-12,6.6c-8.7,0-15.1-7-15.1-16.1c0-9,6.4-15.8,15.1-15.8
			c5.2,0,9.4,2.5,12,6.6v-5.8H228.1z M225.1,40.7c0-6.9-4.9-12.6-12.1-12.6c-7.1,0-11.9,5.7-11.9,12.8c0,7.1,4.8,12.8,11.9,12.8
			C220.1,53.6,225.1,47.8,225.1,40.7z"/>
		<path class="st1" d="M253.9,54.1c-2.2,1.8-5.2,2.6-8.1,2.6c-6.2,0-9.1-4.2-9.1-10.6V28.7h-5.4v-3h5.4V14.9h3.3v10.7h12.5v3h-12.5
			v17.5c0,4.7,1.9,7.4,6,7.4c2.3,0,4.5-0.8,6.4-2.1L253.9,54.1z"/>
		<path class="st1" d="M287.5,40.9c0,8.8-6.4,15.9-15.1,15.9c-5.3,0-9.6-2.6-12.1-6.9V56h-3.4V13.2h3.4v18.6
			c2.6-4.3,6.9-6.8,12.1-6.8C281.1,25,287.5,32,287.5,40.9z M284,40.9c0-7.1-4.8-12.7-11.8-12.7c-7.1,0-12,5.7-12,12.6
			c0,7,4.9,12.8,12,12.8C279.2,53.6,284,47.9,284,40.9z"/>
		<path class="st1" d="M290.6,40.8c0-8.8,6.6-15.9,15.8-15.9c9.1,0,15.8,7,15.8,15.9c0,8.9-6.6,15.9-15.8,15.9
			C297.3,56.8,290.6,49.7,290.6,40.8z M318.8,40.8c0-7.1-5.2-12.8-12.4-12.8c-7.1,0-12.4,5.7-12.4,12.8c0,7.1,5.3,12.8,12.4,12.8
			C313.6,53.6,318.8,48,318.8,40.8z"/>
		<path class="st1" d="M345,54.1c-2.2,1.8-5.2,2.6-8.1,2.6c-6.2,0-9.1-4.2-9.1-10.6V28.7h-5.4v-3h5.4V14.9h3.3v10.7h12.5v3h-12.5
			v17.5c0,4.7,1.9,7.4,6,7.4c2.3,0,4.5-0.8,6.4-2.1L345,54.1z"/>
	</g>
</g>
</svg>
